<mxfile host="app.diagrams.net" modified="2022-09-05T07:47:37.618Z" agent="5.0 (Windows NT 10.0; Win64; x64) AppleWebKit/537.36 (KHTML, like Gecko) Chrome/104.0.0.0 Safari/537.36" etag="7O4lSXVp9nIwT7ETPG9y" version="20.2.8" type="github">
  <diagram id="7p8RHRTzgKysNB_LYyrp" name="Page-1">
    <mxGraphModel dx="1450" dy="811" grid="1" gridSize="10" guides="1" tooltips="1" connect="1" arrows="1" fold="1" page="1" pageScale="1" pageWidth="850" pageHeight="1100" math="0" shadow="0">
      <root>
        <mxCell id="0" />
        <mxCell id="1" parent="0" />
        <mxCell id="8EwcMHSJhlvUqV8JpKRq-1" value="UI/UX Improvisation&lt;br&gt;Digitized the process&lt;br&gt;Cloud Native&lt;br&gt;&lt;br&gt;Frontend - Microfrontend&lt;br&gt;Backend - Spring Boot Java based Microservices&lt;br&gt;BPM - Camunda" style="text;html=1;strokeColor=none;fillColor=none;align=center;verticalAlign=middle;whiteSpace=wrap;rounded=0;" vertex="1" parent="1">
          <mxGeometry x="560" y="20" width="280" height="140" as="geometry" />
        </mxCell>
        <mxCell id="8EwcMHSJhlvUqV8JpKRq-7" value="" style="edgeStyle=orthogonalEdgeStyle;rounded=0;orthogonalLoop=1;jettySize=auto;html=1;" edge="1" parent="1" source="8EwcMHSJhlvUqV8JpKRq-2" target="8EwcMHSJhlvUqV8JpKRq-6">
          <mxGeometry relative="1" as="geometry" />
        </mxCell>
        <mxCell id="8EwcMHSJhlvUqV8JpKRq-16" style="edgeStyle=orthogonalEdgeStyle;rounded=0;orthogonalLoop=1;jettySize=auto;html=1;" edge="1" parent="1" source="8EwcMHSJhlvUqV8JpKRq-2" target="8EwcMHSJhlvUqV8JpKRq-15">
          <mxGeometry relative="1" as="geometry" />
        </mxCell>
        <mxCell id="8EwcMHSJhlvUqV8JpKRq-25" style="edgeStyle=orthogonalEdgeStyle;rounded=0;orthogonalLoop=1;jettySize=auto;html=1;entryX=0.493;entryY=0.007;entryDx=0;entryDy=0;entryPerimeter=0;" edge="1" parent="1" source="8EwcMHSJhlvUqV8JpKRq-2" target="8EwcMHSJhlvUqV8JpKRq-3">
          <mxGeometry relative="1" as="geometry" />
        </mxCell>
        <mxCell id="8EwcMHSJhlvUqV8JpKRq-2" value="Risk Event Generator" style="shape=cube;whiteSpace=wrap;html=1;boundedLbl=1;backgroundOutline=1;darkOpacity=0.05;darkOpacity2=0.1;" vertex="1" parent="1">
          <mxGeometry x="330" y="150" width="120" height="80" as="geometry" />
        </mxCell>
        <mxCell id="8EwcMHSJhlvUqV8JpKRq-12" value="" style="edgeStyle=orthogonalEdgeStyle;rounded=0;orthogonalLoop=1;jettySize=auto;html=1;" edge="1" parent="1" source="8EwcMHSJhlvUqV8JpKRq-3" target="8EwcMHSJhlvUqV8JpKRq-11">
          <mxGeometry relative="1" as="geometry" />
        </mxCell>
        <mxCell id="8EwcMHSJhlvUqV8JpKRq-14" style="edgeStyle=orthogonalEdgeStyle;rounded=0;orthogonalLoop=1;jettySize=auto;html=1;" edge="1" parent="1" source="8EwcMHSJhlvUqV8JpKRq-3" target="8EwcMHSJhlvUqV8JpKRq-4">
          <mxGeometry relative="1" as="geometry" />
        </mxCell>
        <mxCell id="8EwcMHSJhlvUqV8JpKRq-3" value="Risk Event Monitoring" style="shape=cube;whiteSpace=wrap;html=1;boundedLbl=1;backgroundOutline=1;darkOpacity=0.05;darkOpacity2=0.1;" vertex="1" parent="1">
          <mxGeometry x="330" y="300" width="130" height="80" as="geometry" />
        </mxCell>
        <mxCell id="8EwcMHSJhlvUqV8JpKRq-4" value="BPM&lt;br&gt;(Camunda)" style="shape=cube;whiteSpace=wrap;html=1;boundedLbl=1;backgroundOutline=1;darkOpacity=0.05;darkOpacity2=0.1;" vertex="1" parent="1">
          <mxGeometry x="540" y="300" width="120" height="80" as="geometry" />
        </mxCell>
        <mxCell id="8EwcMHSJhlvUqV8JpKRq-19" style="edgeStyle=orthogonalEdgeStyle;rounded=0;orthogonalLoop=1;jettySize=auto;html=1;entryX=0;entryY=0;entryDx=0;entryDy=30;entryPerimeter=0;" edge="1" parent="1" source="8EwcMHSJhlvUqV8JpKRq-5" target="8EwcMHSJhlvUqV8JpKRq-8">
          <mxGeometry relative="1" as="geometry" />
        </mxCell>
        <mxCell id="8EwcMHSJhlvUqV8JpKRq-5" value="CRX&lt;br&gt;UI" style="shape=cube;whiteSpace=wrap;html=1;boundedLbl=1;backgroundOutline=1;darkOpacity=0.05;darkOpacity2=0.1;" vertex="1" parent="1">
          <mxGeometry x="20" y="210" width="120" height="80" as="geometry" />
        </mxCell>
        <mxCell id="8EwcMHSJhlvUqV8JpKRq-6" value="Upstream data" style="rounded=0;whiteSpace=wrap;html=1;" vertex="1" parent="1">
          <mxGeometry x="280" y="40" width="260" height="60" as="geometry" />
        </mxCell>
        <mxCell id="8EwcMHSJhlvUqV8JpKRq-20" style="edgeStyle=orthogonalEdgeStyle;rounded=0;orthogonalLoop=1;jettySize=auto;html=1;entryX=-0.004;entryY=0.528;entryDx=0;entryDy=0;entryPerimeter=0;" edge="1" parent="1" source="8EwcMHSJhlvUqV8JpKRq-8" target="8EwcMHSJhlvUqV8JpKRq-3">
          <mxGeometry relative="1" as="geometry" />
        </mxCell>
        <mxCell id="8EwcMHSJhlvUqV8JpKRq-8" value="IAM" style="shape=cube;whiteSpace=wrap;html=1;boundedLbl=1;backgroundOutline=1;darkOpacity=0.05;darkOpacity2=0.1;" vertex="1" parent="1">
          <mxGeometry x="170" y="330" width="120" height="80" as="geometry" />
        </mxCell>
        <mxCell id="8EwcMHSJhlvUqV8JpKRq-10" value="API Gateway" style="rounded=0;whiteSpace=wrap;html=1;" vertex="1" parent="1">
          <mxGeometry x="170" y="270" width="120" height="60" as="geometry" />
        </mxCell>
        <mxCell id="8EwcMHSJhlvUqV8JpKRq-11" value="Risk Event Data Services" style="shape=cube;whiteSpace=wrap;html=1;boundedLbl=1;backgroundOutline=1;darkOpacity=0.05;darkOpacity2=0.1;" vertex="1" parent="1">
          <mxGeometry x="345" y="450" width="130" height="80" as="geometry" />
        </mxCell>
        <mxCell id="8EwcMHSJhlvUqV8JpKRq-17" value="" style="edgeStyle=orthogonalEdgeStyle;rounded=0;orthogonalLoop=1;jettySize=auto;html=1;" edge="1" parent="1" source="8EwcMHSJhlvUqV8JpKRq-15" target="8EwcMHSJhlvUqV8JpKRq-4">
          <mxGeometry relative="1" as="geometry" />
        </mxCell>
        <mxCell id="8EwcMHSJhlvUqV8JpKRq-15" value="Rule Engine" style="shape=cylinder3;whiteSpace=wrap;html=1;boundedLbl=1;backgroundOutline=1;size=15;" vertex="1" parent="1">
          <mxGeometry x="570" y="170" width="60" height="80" as="geometry" />
        </mxCell>
        <mxCell id="8EwcMHSJhlvUqV8JpKRq-21" value="Task List&lt;br&gt;micro UI" style="shape=cube;whiteSpace=wrap;html=1;boundedLbl=1;backgroundOutline=1;darkOpacity=0.05;darkOpacity2=0.1;" vertex="1" parent="1">
          <mxGeometry x="20" y="320" width="120" height="80" as="geometry" />
        </mxCell>
        <mxCell id="8EwcMHSJhlvUqV8JpKRq-22" value="Risk Event Details micro UI" style="shape=cube;whiteSpace=wrap;html=1;boundedLbl=1;backgroundOutline=1;darkOpacity=0.05;darkOpacity2=0.1;" vertex="1" parent="1">
          <mxGeometry x="30" y="420" width="120" height="80" as="geometry" />
        </mxCell>
        <mxCell id="8EwcMHSJhlvUqV8JpKRq-24" style="edgeStyle=orthogonalEdgeStyle;rounded=0;orthogonalLoop=1;jettySize=auto;html=1;" edge="1" parent="1" source="8EwcMHSJhlvUqV8JpKRq-23" target="8EwcMHSJhlvUqV8JpKRq-4">
          <mxGeometry relative="1" as="geometry" />
        </mxCell>
        <mxCell id="8EwcMHSJhlvUqV8JpKRq-23" value="Task Manager" style="shape=cube;whiteSpace=wrap;html=1;boundedLbl=1;backgroundOutline=1;darkOpacity=0.05;darkOpacity2=0.1;" vertex="1" parent="1">
          <mxGeometry x="345" y="550" width="130" height="80" as="geometry" />
        </mxCell>
      </root>
    </mxGraphModel>
  </diagram>
</mxfile>
